<svg width="26" height="26" viewBox="0 0 26 26" fill="none" xmlns="http://www.w3.org/2000/svg">
<path fill-rule="evenodd" clip-rule="evenodd" d="M7.8001 2.59998C7.08213 2.59998 6.5001 3.18201 6.5001 3.89998V5.19998H5.2001C3.76416 5.19998 2.6001 6.36403 2.6001 7.79998V20.8C2.6001 22.2359 3.76416 23.4 5.2001 23.4H20.8001C22.236 23.4 23.4001 22.2359 23.4001 20.8V7.79998C23.4001 6.36404 22.236 5.19998 20.8001 5.19998H19.5001V3.89998C19.5001 3.18201 18.9181 2.59998 18.2001 2.59998C17.4821 2.59998 16.9001 3.18201 16.9001 3.89998V5.19998H9.1001V3.89998C9.1001 3.18201 8.51807 2.59998 7.8001 2.59998ZM7.8001 9.09998C7.08213 9.09998 6.5001 9.68201 6.5001 10.4C6.5001 11.1179 7.08213 11.7 7.8001 11.7H18.2001C18.9181 11.7 19.5001 11.1179 19.5001 10.4C19.5001 9.68201 18.9181 9.09998 18.2001 9.09998H7.8001Z" fill="white"/>
</svg>
