<svg width="26" height="26" viewBox="0 0 26 26" fill="none" xmlns="http://www.w3.org/2000/svg">
<path fill-rule="evenodd" clip-rule="evenodd" d="M14.9361 4.1222C14.4434 2.09257 11.5568 2.09257 11.0641 4.1222C10.7458 5.43332 9.24368 6.05552 8.09151 5.35349C6.30793 4.26674 4.26686 6.30781 5.35361 8.09139C6.05564 9.24356 5.43344 10.7457 4.12232 11.064C2.09269 11.5567 2.09269 14.4432 4.12232 14.936C5.43344 15.2543 6.05564 16.7564 5.35361 17.9086C4.26686 19.6921 6.30793 21.7332 8.09151 20.6465C9.24368 19.9444 10.7458 20.5666 11.0641 21.8778C11.5568 23.9074 14.4434 23.9074 14.9361 21.8778C15.2544 20.5666 16.7565 19.9444 17.9087 20.6465C19.6923 21.7332 21.7333 19.6921 20.6466 17.9086C19.9446 16.7564 20.5668 15.2543 21.8779 14.936C23.9075 14.4432 23.9075 11.5567 21.8779 11.064C20.5668 10.7457 19.9446 9.24356 20.6466 8.09139C21.7333 6.30781 19.6923 4.26674 17.9087 5.35349C16.7565 6.05552 15.2544 5.43332 14.9361 4.1222ZM13.0001 16.9C15.154 16.9 16.9001 15.1539 16.9001 13C16.9001 10.8461 15.154 9.09998 13.0001 9.09998C10.8462 9.09998 9.1001 10.8461 9.1001 13C9.1001 15.1539 10.8462 16.9 13.0001 16.9Z" fill="white"/>
</svg>
