<svg width="22" height="22" viewBox="0 0 22 22" fill="none" xmlns="http://www.w3.org/2000/svg">
<path fill-rule="evenodd" clip-rule="evenodd" d="M3.5 0.5C1.84315 0.5 0.5 1.84315 0.5 3.5V18.5C0.5 20.1569 1.84315 21.5 3.5 21.5H18.5C20.1569 21.5 21.5 20.1569 21.5 18.5V3.5C21.5 1.84315 20.1569 0.5 18.5 0.5H3.5ZM17 6.5C17 5.67157 16.3284 5 15.5 5C14.6716 5 14 5.67157 14 6.5V15.5C14 16.3284 14.6716 17 15.5 17C16.3284 17 17 16.3284 17 15.5V6.5ZM12.5 9.5C12.5 8.67157 11.8284 8 11 8C10.1716 8 9.5 8.67157 9.5 9.5V15.5C9.5 16.3284 10.1716 17 11 17C11.8284 17 12.5 16.3284 12.5 15.5V9.5ZM8 14C8 13.1716 7.32843 12.5 6.5 12.5C5.67157 12.5 5 13.1716 5 14V15.5C5 16.3284 5.67157 17 6.5 17C7.32843 17 8 16.3284 8 15.5V14Z" fill="white"/>
</svg>
