<svg width="30" height="30" viewBox="0 0 30 30" fill="none" xmlns="http://www.w3.org/2000/svg">
<path fill-rule="evenodd" clip-rule="evenodd" d="M7.5 4.5C5.84315 4.5 4.5 5.84315 4.5 7.5V22.5C4.5 24.1569 5.84315 25.5 7.5 25.5H22.5C24.1569 25.5 25.5 24.1569 25.5 22.5V7.5C25.5 5.84315 24.1569 4.5 22.5 4.5H7.5ZM21 10.5C21 9.67157 20.3284 9 19.5 9C18.6716 9 18 9.67157 18 10.5V19.5C18 20.3284 18.6716 21 19.5 21C20.3284 21 21 20.3284 21 19.5V10.5ZM16.5 13.5C16.5 12.6716 15.8284 12 15 12C14.1716 12 13.5 12.6716 13.5 13.5V19.5C13.5 20.3284 14.1716 21 15 21C15.8284 21 16.5 20.3284 16.5 19.5V13.5ZM12 18C12 17.1716 11.3284 16.5 10.5 16.5C9.67157 16.5 9 17.1716 9 18V19.5C9 20.3284 9.67157 21 10.5 21C11.3284 21 12 20.3284 12 19.5V18Z" fill="#3D3D3D"/>
</svg>
