<svg width="26" height="26" viewBox="0 0 26 26" fill="none" xmlns="http://www.w3.org/2000/svg">
<path fill-rule="evenodd" clip-rule="evenodd" d="M5.19995 5.19998C5.19995 3.76404 6.36401 2.59998 7.79995 2.59998H13.7615C14.451 2.59998 15.1124 2.8739 15.6 3.3615L20.0384 7.79998C20.526 8.28757 20.8 8.94889 20.8 9.63845V20.8C20.8 22.2359 19.6359 23.4 18.2 23.4H7.79995C6.36401 23.4 5.19995 22.2359 5.19995 20.8V5.19998ZM7.79995 13C7.79995 12.282 8.38198 11.7 9.09995 11.7H16.9C17.6179 11.7 18.2 12.282 18.2 13C18.2 13.7179 17.6179 14.3 16.9 14.3H9.09995C8.38198 14.3 7.79995 13.7179 7.79995 13ZM9.09995 16.9C8.38198 16.9 7.79995 17.482 7.79995 18.2C7.79995 18.9179 8.38198 19.5 9.09995 19.5H16.9C17.6179 19.5 18.2 18.9179 18.2 18.2C18.2 17.482 17.6179 16.9 16.9 16.9H9.09995Z" fill="white"/>
</svg>
