<svg width="26" height="26" viewBox="0 0 26 26" fill="none" xmlns="http://www.w3.org/2000/svg">
<path fill-rule="evenodd" clip-rule="evenodd" d="M5.2002 5.19998C5.2002 3.76404 6.36425 2.59998 7.8002 2.59998H13.7617C14.4513 2.59998 15.1126 2.8739 15.6002 3.3615L20.0387 7.79998C20.5263 8.28757 20.8002 8.94889 20.8002 9.63845V20.8C20.8002 22.2359 19.6361 23.4 18.2002 23.4H7.80019C6.36425 23.4 5.2002 22.2359 5.2002 20.8V5.19998ZM7.8002 13C7.8002 12.282 8.38223 11.7 9.1002 11.7H16.9002C17.6182 11.7 18.2002 12.282 18.2002 13C18.2002 13.7179 17.6182 14.3 16.9002 14.3H9.1002C8.38223 14.3 7.8002 13.7179 7.8002 13ZM9.1002 16.9C8.38223 16.9 7.8002 17.482 7.8002 18.2C7.8002 18.9179 8.38223 19.5 9.1002 19.5H16.9002C17.6182 19.5 18.2002 18.9179 18.2002 18.2C18.2002 17.482 17.6182 16.9 16.9002 16.9H9.1002Z" fill="#3D3D3D"/>
</svg>
