<svg width="26" height="26" viewBox="0 0 26 26" fill="none" xmlns="http://www.w3.org/2000/svg">
<path d="M13 2.4375C7.16523 2.4375 2.4375 7.16523 2.4375 13V15.0312C2.4375 15.7066 1.89414 16.25 1.21875 16.25C0.543359 16.25 0 15.7066 0 15.0312V13C0 5.81953 5.81953 0 13 0C20.1805 0 26 5.81953 26 13V20.3176C26 22.7855 23.9992 24.7863 21.5262 24.7863L15.925 24.7812C15.5035 25.5074 14.7164 26 13.8125 26H12.1875C10.8418 26 9.75 24.9082 9.75 23.5625C9.75 22.2168 10.8418 21.125 12.1875 21.125H13.8125C14.7164 21.125 15.5035 21.6176 15.925 22.3438L21.5312 22.3488C22.6535 22.3488 23.5625 21.4398 23.5625 20.3176V13C23.5625 7.16523 18.8348 2.4375 13 2.4375ZM7.3125 10.5625H8.125C9.02383 10.5625 9.75 11.2887 9.75 12.1875V17.875C9.75 18.7738 9.02383 19.5 8.125 19.5H7.3125C5.51992 19.5 4.0625 18.0426 4.0625 16.25V13.8125C4.0625 12.0199 5.51992 10.5625 7.3125 10.5625ZM18.6875 10.5625C20.4801 10.5625 21.9375 12.0199 21.9375 13.8125V16.25C21.9375 18.0426 20.4801 19.5 18.6875 19.5H17.875C16.9762 19.5 16.25 18.7738 16.25 17.875V12.1875C16.25 11.2887 16.9762 10.5625 17.875 10.5625H18.6875Z" fill="white"/>
</svg>
