<svg width="26" height="26" viewBox="0 0 26 26" fill="none" xmlns="http://www.w3.org/2000/svg">
<path d="M3.9001 3.90002C3.18213 3.90002 2.6001 4.48205 2.6001 5.20002V20.8C2.6001 21.518 3.18213 22.1 3.9001 22.1C4.61807 22.1 5.2001 21.518 5.2001 20.8V5.20002C5.2001 4.48205 4.61807 3.90002 3.9001 3.90002Z" fill="white"/>
<path d="M17.2809 15.9808C16.7732 16.4885 16.7732 17.3116 17.2809 17.8193C17.7885 18.3269 18.6117 18.3269 19.1193 17.8193L23.0193 13.9193C23.2631 13.6755 23.4001 13.3448 23.4001 13C23.4001 12.6552 23.2631 12.3246 23.0193 12.0808L19.1193 8.18079C18.6117 7.6731 17.7885 7.6731 17.2809 8.18079C16.7732 8.68847 16.7732 9.51158 17.2809 10.0193L18.9616 11.7L9.1001 11.7C8.38213 11.7 7.8001 12.2821 7.8001 13C7.8001 13.718 8.38213 14.3 9.1001 14.3H18.9616L17.2809 15.9808Z" fill="white"/>
</svg>
