<svg width="37" height="37" viewBox="0 0 37 37" fill="none" xmlns="http://www.w3.org/2000/svg">
<g clip-path="url(#clip0_78_129)">
<path d="M26.0527 12.3612C26.2084 11.8941 26.0869 11.379 25.7387 11.0309C25.3905 10.6827 24.8755 10.5611 24.4084 10.7168L5.10434 17.1515C4.61526 17.3145 4.26872 17.7511 4.22101 18.2645C4.1733 18.7778 4.43344 19.2708 4.8841 19.5212L10.7935 22.8042C11.3009 23.086 11.9336 22.9974 12.3441 22.587L16.5463 18.3848C17.054 17.8771 17.8771 17.8771 18.3848 18.3848C18.8924 18.8924 18.8924 19.7156 18.3848 20.2232L14.1825 24.4255C13.7721 24.8359 13.6835 25.4687 13.9654 25.976L17.2484 31.8855C17.4987 32.3361 17.9918 32.5962 18.5051 32.5485C19.0184 32.5008 19.455 32.1543 19.6181 31.6652L26.0527 12.3612Z" fill="white"/>
</g>
<defs>
<clipPath id="clip0_78_129">
<rect width="26" height="26" fill="white" transform="translate(18.3848) rotate(45)"/>
</clipPath>
</defs>
</svg>
