<svg width="26" height="26" viewBox="0 0 26 26" fill="none" xmlns="http://www.w3.org/2000/svg">
<path fill-rule="evenodd" clip-rule="evenodd" d="M23.4001 13C23.4001 18.7437 18.7439 23.4 13.0001 23.4C7.25634 23.4 2.6001 18.7437 2.6001 13C2.6001 7.25621 7.25634 2.59998 13.0001 2.59998C18.7439 2.59998 23.4001 7.25621 23.4001 13ZM13.0001 9.09998C12.5206 9.09998 12.1 9.35896 11.8732 9.75092C11.5137 10.3724 10.7185 10.5848 10.097 10.2253C9.47553 9.86576 9.26316 9.07051 9.62266 8.44903C10.295 7.28671 11.5549 6.49998 13.0001 6.49998C15.154 6.49998 16.9001 8.24607 16.9001 10.4C16.9001 12.0981 15.8149 13.5427 14.3001 14.0781V14.3C14.3001 15.0179 13.7181 15.6 13.0001 15.6C12.2821 15.6 11.7001 15.0179 11.7001 14.3V13C11.7001 12.282 12.2821 11.7 13.0001 11.7C13.7181 11.7 14.3001 11.1179 14.3001 10.4C14.3001 9.68201 13.7181 9.09998 13.0001 9.09998ZM13.0001 19.5C13.7181 19.5 14.3001 18.9179 14.3001 18.2C14.3001 17.482 13.7181 16.9 13.0001 16.9C12.2821 16.9 11.7001 17.482 11.7001 18.2C11.7001 18.9179 12.2821 19.5 13.0001 19.5Z" fill="white"/>
</svg>
