<svg width="50" height="50" viewBox="0 0 50 50" fill="none" xmlns="http://www.w3.org/2000/svg">
<rect width="50" height="50" rx="5" fill="#3D3D3D"/>
<path d="M18.9858 10H11.1321C10.5059 10 10 10.5059 10 11.1321V19.0566C10 19.3679 10.2547 19.6226 10.566 19.6226H12.2642C12.5755 19.6226 12.8302 19.3679 12.8302 19.0566V17.8302C12.8302 15.0688 15.0688 12.8302 17.8302 12.8302H18.9858C19.2972 12.8302 19.5519 12.5755 19.5519 12.2642V10.566C19.5519 10.2547 19.2972 10 18.9858 10ZM39.434 30.3774H37.7358C37.4245 30.3774 37.1698 30.6321 37.1698 30.9434V32.1698C37.1698 34.9312 34.9312 37.1698 32.1698 37.1698H31.0142C30.7028 37.1698 30.4481 37.4245 30.4481 37.7358V39.434C30.4481 39.7453 30.7028 40 31.0142 40H38.8679C39.4941 40 40 39.4941 40 38.8679V30.9434C40 30.6321 39.7453 30.3774 39.434 30.3774ZM18.9858 37.1698H17.8302C15.0688 37.1698 12.8302 34.9312 12.8302 32.1698V30.9434C12.8302 30.6321 12.5755 30.3774 12.2642 30.3774H10.566C10.2547 30.3774 10 30.6321 10 30.9434V38.8679C10 39.4941 10.5059 40 11.1321 40H18.9858C19.2972 40 19.5519 39.7453 19.5519 39.434V37.7358C19.5519 37.4245 19.2972 37.1698 18.9858 37.1698ZM38.8679 10H31.0142C30.7028 10 30.4481 10.2547 30.4481 10.566V12.2642C30.4481 12.5755 30.7028 12.8302 31.0142 12.8302H32.1698C34.9312 12.8302 37.1698 15.0688 37.1698 17.8302V19.0566C37.1698 19.3679 37.4245 19.6226 37.7358 19.6226H39.434C39.7453 19.6226 40 19.3679 40 19.0566V11.1321C40 10.5059 39.4941 10 38.8679 10Z" fill="white"/>
<path d="M22.016 18.1868C21.9956 18.0184 21.7889 17.947 21.669 18.0669V18.0669C21.0533 18.6826 20.055 18.6828 19.439 18.0673L17.1435 15.7735C17.1052 15.7355 17.0534 15.7142 16.9994 15.7142C16.9454 15.7142 16.8936 15.7355 16.8553 15.7735L15.7736 16.8526C15.7357 16.891 15.7144 16.9428 15.7144 16.9967C15.7144 17.0507 15.7357 17.1025 15.7736 17.1409L18.0645 19.4317C18.683 20.0502 18.683 21.053 18.0645 21.6715V21.6715C18.0375 21.6986 18.0187 21.7327 18.0101 21.77C18.0016 21.8073 18.0037 21.8462 18.0162 21.8824C18.0287 21.9185 18.051 21.9504 18.0808 21.9745C18.1105 21.9985 18.1464 22.0137 18.1844 22.0184L22.2711 22.5006C22.4012 22.5159 22.5134 22.4062 22.4981 22.2735L22.016 18.1868ZM22.2736 27.7072L18.1844 28.1893C18.016 28.2097 17.9446 28.4164 18.0645 28.5363V28.5363C18.6828 29.1546 18.6824 30.1573 18.0636 30.7752L15.7736 33.0618C15.7357 33.1001 15.7144 33.1519 15.7144 33.2059C15.7144 33.2599 15.7357 33.3117 15.7736 33.3501L16.8553 34.4291C16.9344 34.5082 17.0645 34.5082 17.1435 34.4291L19.439 32.1353C20.055 31.5198 21.0533 31.52 21.669 32.1358V32.1358C21.6962 32.1627 21.7303 32.1816 21.7676 32.1901C21.8049 32.1986 21.8438 32.1965 21.8799 32.1841C21.9161 32.1716 21.948 32.1492 21.972 32.1194C21.9961 32.0897 22.0113 32.0538 22.016 32.0159L22.4981 27.9317C22.5134 27.8016 22.4037 27.6919 22.2736 27.7072ZM27.9318 22.498L32.0211 22.0159C32.1895 21.9955 32.2609 21.7888 32.141 21.6689V21.6689C31.5228 21.0521 31.5224 20.0507 32.1401 19.4334L34.4318 17.1434C34.5109 17.0643 34.5109 16.9342 34.4318 16.8552L33.3502 15.7761C33.3118 15.7381 33.26 15.7168 33.206 15.7168C33.1521 15.7168 33.1003 15.7381 33.0619 15.7761L30.7668 18.0677C30.1505 18.6831 29.1522 18.6827 28.5364 18.0669V18.0669C28.5093 18.0399 28.4752 18.0211 28.4379 18.0125C28.4006 18.004 28.3617 18.0061 28.3255 18.0186C28.2894 18.0311 28.2575 18.0535 28.2334 18.0832C28.2094 18.1129 28.1941 18.1488 28.1895 18.1868L27.7073 22.271C27.692 22.4036 27.8017 22.5133 27.9318 22.498ZM32.141 30.7735C31.5225 30.155 31.5225 29.1522 32.141 28.5337V28.5337C32.168 28.5066 32.1868 28.4725 32.1953 28.4352C32.2039 28.3979 32.2018 28.359 32.1893 28.3229C32.1768 28.2867 32.1544 28.2548 32.1247 28.2307C32.0949 28.2067 32.059 28.1915 32.0211 28.1868L27.9344 27.7046C27.8043 27.6893 27.692 27.799 27.7073 27.9317L28.1895 32.0184C28.2099 32.1868 28.4165 32.2582 28.5364 32.1383V32.1383C29.1521 31.5226 30.1504 31.5224 30.7664 32.1379L33.0619 34.4317C33.141 34.5108 33.2711 34.5108 33.3502 34.4317L34.4318 33.3526C34.5109 33.2735 34.5109 33.1434 34.4318 33.0643L32.141 30.7735Z" fill="white"/>
</svg>
