<svg width="70" height="70" viewBox="0 0 70 70" fill="none" xmlns="http://www.w3.org/2000/svg">
<rect width="70" height="70" rx="5" fill="white"/>
<path d="M26.5802 14H15.5849C14.7083 14 14 14.7083 14 15.5849V26.6792C14 27.1151 14.3566 27.4717 14.7925 27.4717H17.1698C17.6057 27.4717 17.9623 27.1151 17.9623 26.6792V22.9623C17.9623 20.2008 20.2008 17.9623 22.9623 17.9623H26.5802C27.016 17.9623 27.3726 17.6057 27.3726 17.1698V14.7925C27.3726 14.3566 27.016 14 26.5802 14ZM55.2075 42.5283H52.8302C52.3943 42.5283 52.0377 42.8849 52.0377 43.3208V47.0377C52.0377 49.7992 49.7992 52.0377 47.0377 52.0377H43.4198C42.984 52.0377 42.6274 52.3943 42.6274 52.8302V55.2075C42.6274 55.6434 42.984 56 43.4198 56H54.4151C55.2917 56 56 55.2917 56 54.4151V43.3208C56 42.8849 55.6434 42.5283 55.2075 42.5283ZM26.5802 52.0377H22.9623C20.2008 52.0377 17.9623 49.7992 17.9623 47.0377V43.3208C17.9623 42.8849 17.6057 42.5283 17.1698 42.5283H14.7925C14.3566 42.5283 14 42.8849 14 43.3208V54.4151C14 55.2917 14.7083 56 15.5849 56H26.5802C27.016 56 27.3726 55.6434 27.3726 55.2075V52.8302C27.3726 52.3943 27.016 52.0377 26.5802 52.0377ZM54.4151 14H43.4198C42.984 14 42.6274 14.3566 42.6274 14.7925V17.1698C42.6274 17.6057 42.984 17.9623 43.4198 17.9623H47.0377C49.7992 17.9623 52.0377 20.2008 52.0377 22.9623V26.6792C52.0377 27.1151 52.3943 27.4717 52.8302 27.4717H55.2075C55.6434 27.4717 56 27.1151 56 26.6792V15.5849C56 14.7083 55.2917 14 54.4151 14Z" fill="#535353"/>
<path d="M30.8223 25.4616C30.7937 25.2259 30.5044 25.1259 30.3366 25.2937V25.2937C29.4745 26.1558 28.0769 26.156 27.2146 25.2943L24.0009 22.083C23.9472 22.0298 23.8746 22 23.7991 22C23.7235 22 23.651 22.0298 23.5973 22.083L22.083 23.5937C22.0298 23.6474 22 23.7199 22 23.7955C22 23.8711 22.0298 23.9436 22.083 23.9973L25.2901 27.2044C26.156 28.0703 26.156 29.4742 25.2901 30.3401V30.3401C25.2524 30.3781 25.226 30.4259 25.2141 30.4781C25.2021 30.5303 25.2051 30.5848 25.2225 30.6354C25.24 30.686 25.2714 30.7307 25.313 30.7643C25.3546 30.798 25.4049 30.8193 25.458 30.8259L31.1794 31.5009C31.3616 31.5223 31.5187 31.3687 31.4973 31.183L30.8223 25.4616ZM31.183 38.7901L25.458 39.4651C25.2223 39.4937 25.1223 39.783 25.2901 39.9509V39.9509C26.1559 40.8166 26.1553 42.2203 25.289 43.0854L22.083 46.2866C22.0298 46.3403 22 46.4128 22 46.4884C22 46.5639 22.0298 46.6364 22.083 46.6901L23.5973 48.2009C23.708 48.3116 23.8901 48.3116 24.0009 48.2009L27.2146 44.9896C28.0769 44.1278 29.4745 44.1281 30.3366 44.9901V44.9901C30.3745 45.0279 30.4223 45.0543 30.4745 45.0662C30.5267 45.0782 30.5812 45.0752 30.6318 45.0577C30.6824 45.0403 30.7271 45.0089 30.7608 44.9673C30.7944 44.9257 30.8157 44.8754 30.8223 44.8223L31.4973 39.1044C31.5187 38.9223 31.3651 38.7687 31.183 38.7901ZM39.1044 31.4973L44.8294 30.8223C45.0651 30.7937 45.1651 30.5044 44.9973 30.3366V30.3366C44.1318 29.473 44.1312 28.071 44.9961 27.2068L48.2044 24.0009C48.3151 23.8901 48.3151 23.708 48.2044 23.5973L46.6901 22.0866C46.6364 22.0334 46.5639 22.0036 46.4884 22.0036C46.4128 22.0036 46.3403 22.0334 46.2866 22.0866L43.0735 25.2949C42.2107 26.1564 40.813 26.1559 39.9509 25.2937V25.2937C39.9129 25.2559 39.8651 25.2296 39.8129 25.2176C39.7607 25.2057 39.7062 25.2086 39.6556 25.2261C39.605 25.2436 39.5603 25.2749 39.5267 25.3166C39.493 25.3582 39.4717 25.4084 39.4651 25.4616L38.7901 31.1794C38.7687 31.3651 38.9223 31.5187 39.1044 31.4973ZM44.9973 43.083C44.1314 42.2171 44.1314 40.8132 44.9973 39.9473V39.9473C45.0351 39.9093 45.0614 39.8615 45.0734 39.8094C45.0853 39.7572 45.0824 39.7027 45.0649 39.6521C45.0474 39.6015 45.0161 39.5568 44.9744 39.5231C44.9328 39.4894 44.8826 39.4681 44.8294 39.4616L39.108 38.7866C38.9259 38.7651 38.7687 38.9187 38.7901 39.1044L39.4651 44.8259C39.4937 45.0616 39.783 45.1616 39.9509 44.9937V44.9937C40.8129 44.1317 42.2105 44.1314 43.0729 44.9931L46.2866 48.2044C46.3973 48.3151 46.5794 48.3151 46.6901 48.2044L48.2044 46.6937C48.3151 46.583 48.3151 46.4009 48.2044 46.2901L44.9973 43.083Z" fill="#535353"/>
</svg>
