<svg width="26" height="26" viewBox="0 0 26 26" fill="none" xmlns="http://www.w3.org/2000/svg">
<path d="M3.8999 5.20002C3.8999 4.48205 4.48193 3.90002 5.1999 3.90002H20.7999C21.5179 3.90002 22.0999 4.48205 22.0999 5.20002V7.80002C22.0999 8.51799 21.5179 9.10002 20.7999 9.10002H5.1999C4.48193 9.10002 3.8999 8.51799 3.8999 7.80002V5.20002Z" fill="white"/>
<path d="M3.8999 13C3.8999 12.2821 4.48193 11.7 5.1999 11.7H12.9999C13.7179 11.7 14.2999 12.2821 14.2999 13V20.8C14.2999 21.518 13.7179 22.1 12.9999 22.1H5.1999C4.48193 22.1 3.8999 21.518 3.8999 20.8V13Z" fill="white"/>
<path d="M18.1999 11.7C17.4819 11.7 16.8999 12.2821 16.8999 13V20.8C16.8999 21.518 17.4819 22.1 18.1999 22.1H20.7999C21.5179 22.1 22.0999 21.518 22.0999 20.8V13C22.0999 12.2821 21.5179 11.7 20.7999 11.7H18.1999Z" fill="white"/>
</svg>
