<svg width="8" height="9" viewBox="0 0 8 9" fill="none" xmlns="http://www.w3.org/2000/svg">
<path d="M1.71429 2.25C1.71429 2.84674 1.9551 3.41903 2.38376 3.84099C2.81241 4.26295 3.39379 4.5 4 4.5C4.60621 4.5 5.18759 4.26295 5.61624 3.84099C6.0449 3.41903 6.28571 2.84674 6.28571 2.25C6.28571 1.65326 6.0449 1.08097 5.61624 0.65901C5.18759 0.237053 4.60621 0 4 0C3.39379 0 2.81241 0.237053 2.38376 0.65901C1.9551 1.08097 1.71429 1.65326 1.71429 2.25ZM3.40179 5.76914L3.73393 6.31406L3.13929 8.49199L2.49643 5.90977C2.46071 5.76738 2.32143 5.67422 2.17679 5.71113C0.926786 6.01875 0 7.1332 0 8.46035C0 8.75918 0.246429 9 0.548214 9H2.90179C2.90179 9 2.90179 9 2.90357 9H3H5H5.09821C5.09821 9 5.09821 9 5.1 9H7.45179C7.75536 9 8 8.75742 8 8.46035C8 7.1332 7.07321 6.01875 5.82321 5.71113C5.67857 5.67598 5.53929 5.76914 5.50357 5.90977L4.86071 8.49199L4.26607 6.31406L4.59821 5.76914C4.7125 5.58105 4.575 5.34375 4.35357 5.34375H4H3.64821C3.42679 5.34375 3.28929 5.58281 3.40357 5.76914H3.40179Z" fill="white"/>
</svg>
